<svg width="217" height="3" viewBox="0 0 217 3" fill="none" xmlns="http://www.w3.org/2000/svg">
<rect width="217" height="3" fill="#1E1E1E"/>
<rect width="1366" height="1152" transform="translate(-205 -817)" fill="#C5C5C5"/>
<g filter="url(#filter0_d_0_1)">
<rect x="-29" y="-173" width="275" height="380" rx="16" fill="white"/>
</g>
<mask id="path-2-inside-1_0_1" fill="white">
<path fill-rule="evenodd" clip-rule="evenodd" d="M1 1.5H216H1Z"/>
</mask>
<path d="M1 1C0.723858 1 0.5 1.22386 0.5 1.5C0.5 1.77614 0.723858 2 1 2V1ZM216 2C216.276 2 216.5 1.77614 216.5 1.5C216.5 1.22386 216.276 1 216 1V2ZM2.49306 2C2.7692 2 2.99306 1.77614 2.99306 1.5C2.99306 1.22386 2.7692 1 2.49306 1V2ZM5.47917 1C5.20302 1 4.97917 1.22386 4.97917 1.5C4.97917 1.77614 5.20302 2 5.47917 2V1ZM8.46528 2C8.74142 2 8.96528 1.77614 8.96528 1.5C8.96528 1.22386 8.74142 1 8.46528 1V2ZM11.4514 1C11.1752 1 10.9514 1.22386 10.9514 1.5C10.9514 1.77614 11.1752 2 11.4514 2V1ZM14.4375 2C14.7136 2 14.9375 1.77614 14.9375 1.5C14.9375 1.22386 14.7136 1 14.4375 1V2ZM17.4236 1C17.1475 1 16.9236 1.22386 16.9236 1.5C16.9236 1.77614 17.1475 2 17.4236 2V1ZM20.4097 2C20.6859 2 20.9097 1.77614 20.9097 1.5C20.9097 1.22386 20.6859 1 20.4097 1V2ZM23.3958 1C23.1197 1 22.8958 1.22386 22.8958 1.5C22.8958 1.77614 23.1197 2 23.3958 2V1ZM26.3819 2C26.6581 2 26.8819 1.77614 26.8819 1.5C26.8819 1.22386 26.6581 1 26.3819 1V2ZM29.3681 1C29.0919 1 28.8681 1.22386 28.8681 1.5C28.8681 1.77614 29.0919 2 29.3681 2V1ZM32.3542 2C32.6303 2 32.8542 1.77614 32.8542 1.5C32.8542 1.22386 32.6303 1 32.3542 1V2ZM35.3403 1C35.0641 1 34.8403 1.22386 34.8403 1.5C34.8403 1.77614 35.0641 2 35.3403 2V1ZM38.3264 2C38.6025 2 38.8264 1.77614 38.8264 1.5C38.8264 1.22386 38.6025 1 38.3264 1V2ZM41.3125 1C41.0364 1 40.8125 1.22386 40.8125 1.5C40.8125 1.77614 41.0364 2 41.3125 2V1ZM44.2986 2C44.5747 2 44.7986 1.77614 44.7986 1.5C44.7986 1.22386 44.5747 1 44.2986 1V2ZM47.2847 1C47.0086 1 46.7847 1.22386 46.7847 1.5C46.7847 1.77614 47.0086 2 47.2847 2V1ZM50.2708 2C50.547 2 50.7708 1.77614 50.7708 1.5C50.7708 1.22386 50.547 1 50.2708 1V2ZM53.2569 1C52.9808 1 52.7569 1.22386 52.7569 1.5C52.7569 1.77614 52.9808 2 53.2569 2V1ZM56.243 2C56.5192 2 56.743 1.77614 56.743 1.5C56.743 1.22386 56.5192 1 56.243 1V2ZM59.2292 1C58.953 1 58.7292 1.22386 58.7292 1.5C58.7292 1.77614 58.953 2 59.2292 2V1ZM62.2153 2C62.4914 2 62.7153 1.77614 62.7153 1.5C62.7153 1.22386 62.4914 1 62.2153 1V2ZM65.2014 1C64.9252 1 64.7014 1.22386 64.7014 1.5C64.7014 1.77614 64.9252 2 65.2014 2V1ZM68.1875 2C68.4636 2 68.6875 1.77614 68.6875 1.5C68.6875 1.22386 68.4636 1 68.1875 1V2ZM71.1736 1C70.8975 1 70.6736 1.22386 70.6736 1.5C70.6736 1.77614 70.8975 2 71.1736 2V1ZM74.1597 2C74.4359 2 74.6597 1.77614 74.6597 1.5C74.6597 1.22386 74.4359 1 74.1597 1V2ZM77.1458 1C76.8697 1 76.6458 1.22386 76.6458 1.5C76.6458 1.77614 76.8697 2 77.1458 2V1ZM80.132 2C80.4081 2 80.632 1.77614 80.632 1.5C80.632 1.22386 80.4081 1 80.132 1V2ZM83.1181 1C82.8419 1 82.6181 1.22386 82.6181 1.5C82.6181 1.77614 82.8419 2 83.1181 2V1ZM86.1042 2C86.3803 2 86.6042 1.77614 86.6042 1.5C86.6042 1.22386 86.3803 1 86.1042 1V2ZM89.0903 1C88.8142 1 88.5903 1.22386 88.5903 1.5C88.5903 1.77614 88.8142 2 89.0903 2V1ZM92.0764 2C92.3526 2 92.5764 1.77614 92.5764 1.5C92.5764 1.22386 92.3526 1 92.0764 1V2ZM95.0625 1C94.7864 1 94.5625 1.22386 94.5625 1.5C94.5625 1.77614 94.7864 2 95.0625 2V1ZM98.0486 2C98.3248 2 98.5486 1.77614 98.5486 1.5C98.5486 1.22386 98.3248 1 98.0486 1V2ZM101.035 1C100.759 1 100.535 1.22386 100.535 1.5C100.535 1.77614 100.759 2 101.035 2V1ZM104.021 2C104.297 2 104.521 1.77614 104.521 1.5C104.521 1.22386 104.297 1 104.021 1V2ZM107.007 1C106.731 1 106.507 1.22386 106.507 1.5C106.507 1.77614 106.731 2 107.007 2V1ZM109.993 2C110.269 2 110.493 1.77614 110.493 1.5C110.493 1.22386 110.269 1 109.993 1V2ZM112.979 1C112.703 1 112.479 1.22386 112.479 1.5C112.479 1.77614 112.703 2 112.979 2V1ZM115.965 2C116.241 2 116.465 1.77614 116.465 1.5C116.465 1.22386 116.241 1 115.965 1V2ZM118.951 1C118.675 1 118.451 1.22386 118.451 1.5C118.451 1.77614 118.675 2 118.951 2V1ZM121.938 2C122.214 2 122.438 1.77614 122.438 1.5C122.438 1.22386 122.214 1 121.938 1V2ZM124.924 1C124.648 1 124.424 1.22386 124.424 1.5C124.424 1.77614 124.648 2 124.924 2V1ZM127.91 2C128.186 2 128.41 1.77614 128.41 1.5C128.41 1.22386 128.186 1 127.91 1V2ZM130.896 1C130.62 1 130.396 1.22386 130.396 1.5C130.396 1.77614 130.62 2 130.896 2V1ZM133.882 2C134.158 2 134.382 1.77614 134.382 1.5C134.382 1.22386 134.158 1 133.882 1V2ZM136.868 1C136.592 1 136.368 1.22386 136.368 1.5C136.368 1.77614 136.592 2 136.868 2V1ZM139.854 2C140.13 2 140.354 1.77614 140.354 1.5C140.354 1.22386 140.13 1 139.854 1V2ZM142.84 1C142.564 1 142.34 1.22386 142.34 1.5C142.34 1.77614 142.564 2 142.84 2V1ZM145.826 2C146.103 2 146.326 1.77614 146.326 1.5C146.326 1.22386 146.103 1 145.826 1V2ZM148.813 1C148.536 1 148.313 1.22386 148.313 1.5C148.313 1.77614 148.536 2 148.813 2V1ZM151.799 2C152.075 2 152.299 1.77614 152.299 1.5C152.299 1.22386 152.075 1 151.799 1V2ZM154.785 1C154.509 1 154.285 1.22386 154.285 1.5C154.285 1.77614 154.509 2 154.785 2V1ZM157.771 2C158.047 2 158.271 1.77614 158.271 1.5C158.271 1.22386 158.047 1 157.771 1V2ZM160.757 1C160.481 1 160.257 1.22386 160.257 1.5C160.257 1.77614 160.481 2 160.757 2V1ZM163.743 2C164.019 2 164.243 1.77614 164.243 1.5C164.243 1.22386 164.019 1 163.743 1V2ZM166.729 1C166.453 1 166.229 1.22386 166.229 1.5C166.229 1.77614 166.453 2 166.729 2V1ZM169.715 2C169.992 2 170.215 1.77614 170.215 1.5C170.215 1.22386 169.992 1 169.715 1V2ZM172.702 1C172.425 1 172.202 1.22386 172.202 1.5C172.202 1.77614 172.425 2 172.702 2V1ZM175.688 2C175.964 2 176.188 1.77614 176.188 1.5C176.188 1.22386 175.964 1 175.688 1V2ZM178.674 1C178.398 1 178.174 1.22386 178.174 1.5C178.174 1.77614 178.398 2 178.674 2V1ZM181.66 2C181.936 2 182.16 1.77614 182.16 1.5C182.16 1.22386 181.936 1 181.66 1V2ZM184.646 1C184.37 1 184.146 1.22386 184.146 1.5C184.146 1.77614 184.37 2 184.646 2V1ZM187.632 2C187.908 2 188.132 1.77614 188.132 1.5C188.132 1.22386 187.908 1 187.632 1V2ZM190.618 1C190.342 1 190.118 1.22386 190.118 1.5C190.118 1.77614 190.342 2 190.618 2V1ZM193.604 2C193.88 2 194.104 1.77614 194.104 1.5C194.104 1.22386 193.88 1 193.604 1V2ZM196.59 1C196.314 1 196.09 1.22386 196.09 1.5C196.09 1.77614 196.314 2 196.59 2V1ZM199.577 2C199.853 2 200.077 1.77614 200.077 1.5C200.077 1.22386 199.853 1 199.577 1V2ZM202.563 1C202.287 1 202.063 1.22386 202.063 1.5C202.063 1.77614 202.287 2 202.563 2V1ZM205.549 2C205.825 2 206.049 1.77614 206.049 1.5C206.049 1.22386 205.825 1 205.549 1V2ZM208.535 1C208.259 1 208.035 1.22386 208.035 1.5C208.035 1.77614 208.259 2 208.535 2V1ZM211.521 2C211.797 2 212.021 1.77614 212.021 1.5C212.021 1.22386 211.797 1 211.521 1V2ZM214.507 1C214.231 1 214.007 1.22386 214.007 1.5C214.007 1.77614 214.231 2 214.507 2V1ZM1 2H2.49306V1H1V2ZM5.47917 2H8.46528V1H5.47917V2ZM11.4514 2H14.4375V1H11.4514V2ZM17.4236 2H20.4097V1H17.4236V2ZM23.3958 2H26.3819V1H23.3958V2ZM29.3681 2H32.3542V1H29.3681V2ZM35.3403 2H38.3264V1H35.3403V2ZM41.3125 2H44.2986V1H41.3125V2ZM47.2847 2H50.2708V1H47.2847V2ZM53.2569 2H56.243V1H53.2569V2ZM59.2292 2H62.2153V1H59.2292V2ZM65.2014 2H68.1875V1H65.2014V2ZM71.1736 2H74.1597V1H71.1736V2ZM77.1458 2H80.132V1H77.1458V2ZM83.1181 2H86.1042V1H83.1181V2ZM89.0903 2H92.0764V1H89.0903V2ZM95.0625 2H98.0486V1H95.0625V2ZM101.035 2H104.021V1H101.035V2ZM107.007 2H109.993V1H107.007V2ZM112.979 2H115.965V1H112.979V2ZM118.951 2H121.938V1H118.951V2ZM124.924 2H127.91V1H124.924V2ZM130.896 2H133.882V1H130.896V2ZM136.868 2H139.854V1H136.868V2ZM142.84 2H145.826V1H142.84V2ZM148.813 2H151.799V1H148.813V2ZM154.785 2H157.771V1H154.785V2ZM160.757 2H163.743V1H160.757V2ZM166.729 2H169.715V1H166.729V2ZM172.702 2H175.688V1H172.702V2ZM178.674 2H181.66V1H178.674V2ZM184.646 2H187.632V1H184.646V2ZM190.618 2H193.604V1H190.618V2ZM196.59 2H199.577V1H196.59V2ZM202.563 2H205.549V1H202.563V2ZM208.535 2H211.521V1H208.535V2ZM214.507 2H216V1H214.507V2ZM1 0.5C0.447715 0.5 0 0.947715 0 1.5C0 2.05228 0.447715 2.5 1 2.5V0.5ZM216 2.5C216.552 2.5 217 2.05228 217 1.5C217 0.947715 216.552 0.5 216 0.5V2.5ZM2.49306 2.5C3.04534 2.5 3.49306 2.05228 3.49306 1.5C3.49306 0.947715 3.04534 0.5 2.49306 0.5V2.5ZM5.47917 0.5C4.92688 0.5 4.47917 0.947715 4.47917 1.5C4.47917 2.05228 4.92688 2.5 5.47917 2.5V0.5ZM8.46528 2.5C9.01756 2.5 9.46528 2.05228 9.46528 1.5C9.46528 0.947715 9.01756 0.5 8.46528 0.5V2.5ZM11.4514 0.5C10.8991 0.5 10.4514 0.947715 10.4514 1.5C10.4514 2.05228 10.8991 2.5 11.4514 2.5V0.5ZM14.4375 2.5C14.9898 2.5 15.4375 2.05228 15.4375 1.5C15.4375 0.947715 14.9898 0.5 14.4375 0.5V2.5ZM17.4236 0.5C16.8713 0.5 16.4236 0.947715 16.4236 1.5C16.4236 2.05228 16.8713 2.5 17.4236 2.5V0.5ZM20.4097 2.5C20.962 2.5 21.4097 2.05228 21.4097 1.5C21.4097 0.947715 20.962 0.5 20.4097 0.5V2.5ZM23.3958 0.5C22.8435 0.5 22.3958 0.947715 22.3958 1.5C22.3958 2.05228 22.8435 2.5 23.3958 2.5V0.5ZM26.3819 2.5C26.9342 2.5 27.3819 2.05228 27.3819 1.5C27.3819 0.947715 26.9342 0.5 26.3819 0.5V2.5ZM29.3681 0.5C28.8158 0.5 28.3681 0.947715 28.3681 1.5C28.3681 2.05228 28.8158 2.5 29.3681 2.5V0.5ZM32.3542 2.5C32.9065 2.5 33.3542 2.05228 33.3542 1.5C33.3542 0.947715 32.9065 0.5 32.3542 0.5V2.5ZM35.3403 0.5C34.788 0.5 34.3403 0.947715 34.3403 1.5C34.3403 2.05228 34.788 2.5 35.3403 2.5V0.5ZM38.3264 2.5C38.8787 2.5 39.3264 2.05228 39.3264 1.5C39.3264 0.947715 38.8787 0.5 38.3264 0.5V2.5ZM41.3125 0.5C40.7602 0.5 40.3125 0.947715 40.3125 1.5C40.3125 2.05228 40.7602 2.5 41.3125 2.5V0.5ZM44.2986 2.5C44.8509 2.5 45.2986 2.05228 45.2986 1.5C45.2986 0.947715 44.8509 0.5 44.2986 0.5V2.5ZM47.2847 0.5C46.7324 0.5 46.2847 0.947715 46.2847 1.5C46.2847 2.05228 46.7324 2.5 47.2847 2.5V0.5ZM50.2708 2.5C50.8231 2.5 51.2708 2.05228 51.2708 1.5C51.2708 0.947715 50.8231 0.5 50.2708 0.5V2.5ZM53.2569 0.5C52.7047 0.5 52.2569 0.947715 52.2569 1.5C52.2569 2.05228 52.7047 2.5 53.2569 2.5V0.5ZM56.243 2.5C56.7953 2.5 57.243 2.05228 57.243 1.5C57.243 0.947715 56.7953 0.5 56.243 0.5V2.5ZM59.2292 0.5C58.6769 0.5 58.2292 0.947715 58.2292 1.5C58.2292 2.05228 58.6769 2.5 59.2292 2.5V0.5ZM62.2153 2.5C62.7676 2.5 63.2153 2.05228 63.2153 1.5C63.2153 0.947715 62.7676 0.5 62.2153 0.5V2.5ZM65.2014 0.5C64.6491 0.5 64.2014 0.947715 64.2014 1.5C64.2014 2.05228 64.6491 2.5 65.2014 2.5V0.5ZM68.1875 2.5C68.7398 2.5 69.1875 2.05228 69.1875 1.5C69.1875 0.947715 68.7398 0.5 68.1875 0.5V2.5ZM71.1736 0.5C70.6213 0.5 70.1736 0.947715 70.1736 1.5C70.1736 2.05228 70.6213 2.5 71.1736 2.5V0.5ZM74.1597 2.5C74.712 2.5 75.1597 2.05228 75.1597 1.5C75.1597 0.947715 74.712 0.5 74.1597 0.5V2.5ZM77.1458 0.5C76.5936 0.5 76.1458 0.947715 76.1458 1.5C76.1458 2.05228 76.5936 2.5 77.1458 2.5V0.5ZM80.132 2.5C80.6842 2.5 81.132 2.05228 81.132 1.5C81.132 0.947715 80.6842 0.5 80.132 0.5V2.5ZM83.1181 0.5C82.5658 0.5 82.1181 0.947715 82.1181 1.5C82.1181 2.05228 82.5658 2.5 83.1181 2.5V0.5ZM86.1042 2.5C86.6565 2.5 87.1042 2.05228 87.1042 1.5C87.1042 0.947715 86.6565 0.5 86.1042 0.5V2.5ZM89.0903 0.5C88.538 0.5 88.0903 0.947715 88.0903 1.5C88.0903 2.05228 88.538 2.5 89.0903 2.5V0.5ZM92.0764 2.5C92.6287 2.5 93.0764 2.05228 93.0764 1.5C93.0764 0.947715 92.6287 0.5 92.0764 0.5V2.5ZM95.0625 0.5C94.5102 0.5 94.0625 0.947715 94.0625 1.5C94.0625 2.05228 94.5102 2.5 95.0625 2.5V0.5ZM98.0486 2.5C98.6009 2.5 99.0486 2.05228 99.0486 1.5C99.0486 0.947715 98.6009 0.5 98.0486 0.5V2.5ZM101.035 0.5C100.482 0.5 100.035 0.947715 100.035 1.5C100.035 2.05228 100.482 2.5 101.035 2.5V0.5ZM104.021 2.5C104.573 2.5 105.021 2.05228 105.021 1.5C105.021 0.947715 104.573 0.5 104.021 0.5V2.5ZM107.007 0.5C106.455 0.5 106.007 0.947715 106.007 1.5C106.007 2.05228 106.455 2.5 107.007 2.5V0.5ZM109.993 2.5C110.545 2.5 110.993 2.05228 110.993 1.5C110.993 0.947715 110.545 0.5 109.993 0.5V2.5ZM112.979 0.5C112.427 0.5 111.979 0.947715 111.979 1.5C111.979 2.05228 112.427 2.5 112.979 2.5V0.5ZM115.965 2.5C116.518 2.5 116.965 2.05228 116.965 1.5C116.965 0.947715 116.518 0.5 115.965 0.5V2.5ZM118.951 0.5C118.399 0.5 117.951 0.947715 117.951 1.5C117.951 2.05228 118.399 2.5 118.951 2.5V0.5ZM121.938 2.5C122.49 2.5 122.938 2.05228 122.938 1.5C122.938 0.947715 122.49 0.5 121.938 0.5V2.5ZM124.924 0.5C124.371 0.5 123.924 0.947715 123.924 1.5C123.924 2.05228 124.371 2.5 124.924 2.5V0.5ZM127.91 2.5C128.462 2.5 128.91 2.05228 128.91 1.5C128.91 0.947715 128.462 0.5 127.91 0.5V2.5ZM130.896 0.5C130.344 0.5 129.896 0.947715 129.896 1.5C129.896 2.05228 130.344 2.5 130.896 2.5V0.5ZM133.882 2.5C134.434 2.5 134.882 2.05228 134.882 1.5C134.882 0.947715 134.434 0.5 133.882 0.5V2.5ZM136.868 0.5C136.316 0.5 135.868 0.947715 135.868 1.5C135.868 2.05228 136.316 2.5 136.868 2.5V0.5ZM139.854 2.5C140.407 2.5 140.854 2.05228 140.854 1.5C140.854 0.947715 140.407 0.5 139.854 0.5V2.5ZM142.84 0.5C142.288 0.5 141.84 0.947715 141.84 1.5C141.84 2.05228 142.288 2.5 142.84 2.5V0.5ZM145.826 2.5C146.379 2.5 146.826 2.05228 146.826 1.5C146.826 0.947715 146.379 0.5 145.826 0.5V2.5ZM148.813 0.5C148.26 0.5 147.813 0.947715 147.813 1.5C147.813 2.05228 148.26 2.5 148.813 2.5V0.5ZM151.799 2.5C152.351 2.5 152.799 2.05228 152.799 1.5C152.799 0.947715 152.351 0.5 151.799 0.5V2.5ZM154.785 0.5C154.233 0.5 153.785 0.947715 153.785 1.5C153.785 2.05228 154.233 2.5 154.785 2.5V0.5ZM157.771 2.5C158.323 2.5 158.771 2.05228 158.771 1.5C158.771 0.947715 158.323 0.5 157.771 0.5V2.5ZM160.757 0.5C160.205 0.5 159.757 0.947715 159.757 1.5C159.757 2.05228 160.205 2.5 160.757 2.5V0.5ZM163.743 2.5C164.295 2.5 164.743 2.05228 164.743 1.5C164.743 0.947715 164.295 0.5 163.743 0.5V2.5ZM166.729 0.5C166.177 0.5 165.729 0.947715 165.729 1.5C165.729 2.05228 166.177 2.5 166.729 2.5V0.5ZM169.715 2.5C170.268 2.5 170.715 2.05228 170.715 1.5C170.715 0.947715 170.268 0.5 169.715 0.5V2.5ZM172.702 0.5C172.149 0.5 171.702 0.947715 171.702 1.5C171.702 2.05228 172.149 2.5 172.702 2.5V0.5ZM175.688 2.5C176.24 2.5 176.688 2.05228 176.688 1.5C176.688 0.947715 176.24 0.5 175.688 0.5V2.5ZM178.674 0.5C178.121 0.5 177.674 0.947715 177.674 1.5C177.674 2.05228 178.121 2.5 178.674 2.5V0.5ZM181.66 2.5C182.212 2.5 182.66 2.05228 182.66 1.5C182.66 0.947715 182.212 0.5 181.66 0.5V2.5ZM184.646 0.5C184.094 0.5 183.646 0.947715 183.646 1.5C183.646 2.05228 184.094 2.5 184.646 2.5V0.5ZM187.632 2.5C188.184 2.5 188.632 2.05228 188.632 1.5C188.632 0.947715 188.184 0.5 187.632 0.5V2.5ZM190.618 0.5C190.066 0.5 189.618 0.947715 189.618 1.5C189.618 2.05228 190.066 2.5 190.618 2.5V0.5ZM193.604 2.5C194.157 2.5 194.604 2.05228 194.604 1.5C194.604 0.947715 194.157 0.5 193.604 0.5V2.5ZM196.59 0.5C196.038 0.5 195.59 0.947715 195.59 1.5C195.59 2.05228 196.038 2.5 196.59 2.5V0.5ZM199.577 2.5C200.129 2.5 200.577 2.05228 200.577 1.5C200.577 0.947715 200.129 0.5 199.577 0.5V2.5ZM202.563 0.5C202.01 0.5 201.563 0.947715 201.563 1.5C201.563 2.05228 202.01 2.5 202.563 2.5V0.5ZM205.549 2.5C206.101 2.5 206.549 2.05228 206.549 1.5C206.549 0.947715 206.101 0.5 205.549 0.5V2.5ZM208.535 0.5C207.983 0.5 207.535 0.947715 207.535 1.5C207.535 2.05228 207.983 2.5 208.535 2.5V0.5ZM211.521 2.5C212.073 2.5 212.521 2.05228 212.521 1.5C212.521 0.947715 212.073 0.5 211.521 0.5V2.5ZM214.507 0.5C213.955 0.5 213.507 0.947715 213.507 1.5C213.507 2.05228 213.955 2.5 214.507 2.5V0.5ZM1 2.5H2.49306V0.5H1V2.5ZM5.47917 2.5H8.46528V0.5H5.47917V2.5ZM11.4514 2.5H14.4375V0.5H11.4514V2.5ZM17.4236 2.5H20.4097V0.5H17.4236V2.5ZM23.3958 2.5H26.3819V0.5H23.3958V2.5ZM29.3681 2.5H32.3542V0.5H29.3681V2.5ZM35.3403 2.5H38.3264V0.5H35.3403V2.5ZM41.3125 2.5H44.2986V0.5H41.3125V2.5ZM47.2847 2.5H50.2708V0.5H47.2847V2.5ZM53.2569 2.5H56.243V0.5H53.2569V2.5ZM59.2292 2.5H62.2153V0.5H59.2292V2.5ZM65.2014 2.5H68.1875V0.5H65.2014V2.5ZM71.1736 2.5H74.1597V0.5H71.1736V2.5ZM77.1458 2.5H80.132V0.5H77.1458V2.5ZM83.1181 2.5H86.1042V0.5H83.1181V2.5ZM89.0903 2.5H92.0764V0.5H89.0903V2.5ZM95.0625 2.5H98.0486V0.5H95.0625V2.5ZM101.035 2.5H104.021V0.5H101.035V2.5ZM107.007 2.5H109.993V0.5H107.007V2.5ZM112.979 2.5H115.965V0.5H112.979V2.5ZM118.951 2.5H121.938V0.5H118.951V2.5ZM124.924 2.5H127.91V0.5H124.924V2.5ZM130.896 2.5H133.882V0.5H130.896V2.5ZM136.868 2.5H139.854V0.5H136.868V2.5ZM142.84 2.5H145.826V0.5H142.84V2.5ZM148.813 2.5H151.799V0.5H148.813V2.5ZM154.785 2.5H157.771V0.5H154.785V2.5ZM160.757 2.5H163.743V0.5H160.757V2.5ZM166.729 2.5H169.715V0.5H166.729V2.5ZM172.702 2.5H175.688V0.5H172.702V2.5ZM178.674 2.5H181.66V0.5H178.674V2.5ZM184.646 2.5H187.632V0.5H184.646V2.5ZM190.618 2.5H193.604V0.5H190.618V2.5ZM196.59 2.5H199.577V0.5H196.59V2.5ZM202.563 2.5H205.549V0.5H202.563V2.5ZM208.535 2.5H211.521V0.5H208.535V2.5ZM214.507 2.5H216V0.5H214.507V2.5Z" fill="#A2C0D4" mask="url(#path-2-inside-1_0_1)"/>
<rect x="18" y="-9" width="47" height="20" rx="8" fill="white"/>
<path d="M27.6475 -2.60938V4.5H26.4316V-2.60938H27.6475ZM29.8789 -2.60938V-1.63281H24.2197V-2.60938H29.8789ZM36.7653 0.75V1.14062C36.7653 1.67773 36.6953 2.15951 36.5553 2.58594C36.4154 3.01237 36.2152 3.37533 35.9548 3.6748C35.6976 3.97428 35.3883 4.20378 35.027 4.36328C34.6657 4.51953 34.2653 4.59766 33.8258 4.59766C33.3896 4.59766 32.9909 4.51953 32.6296 4.36328C32.2715 4.20378 31.9606 3.97428 31.6969 3.6748C31.4333 3.37533 31.2282 3.01237 31.0817 2.58594C30.9385 2.15951 30.8669 1.67773 30.8669 1.14062V0.75C30.8669 0.212891 30.9385 -0.267253 31.0817 -0.69043C31.2249 -1.11686 31.4268 -1.47982 31.6872 -1.7793C31.9508 -2.08203 32.2617 -2.31152 32.6198 -2.46777C32.9811 -2.62728 33.3799 -2.70703 33.8161 -2.70703C34.2555 -2.70703 34.6559 -2.62728 35.0173 -2.46777C35.3786 -2.31152 35.6895 -2.08203 35.9499 -1.7793C36.2103 -1.47982 36.4105 -1.11686 36.5505 -0.69043C36.6937 -0.267253 36.7653 0.212891 36.7653 0.75ZM35.5397 1.14062V0.740234C35.5397 0.343099 35.5007 -0.00683594 35.4225 -0.30957C35.3477 -0.61556 35.2354 -0.871094 35.0856 -1.07617C34.9391 -1.28451 34.7585 -1.44076 34.5436 -1.54492C34.3288 -1.65234 34.0863 -1.70605 33.8161 -1.70605C33.5459 -1.70605 33.305 -1.65234 33.0934 -1.54492C32.8818 -1.44076 32.7012 -1.28451 32.5514 -1.07617C32.4049 -0.871094 32.2926 -0.61556 32.2145 -0.30957C32.1364 -0.00683594 32.0973 0.343099 32.0973 0.740234V1.14062C32.0973 1.53776 32.1364 1.88932 32.2145 2.19531C32.2926 2.5013 32.4066 2.76009 32.5563 2.97168C32.7093 3.18001 32.8916 3.33789 33.1032 3.44531C33.3148 3.54948 33.5557 3.60156 33.8258 3.60156C34.0993 3.60156 34.3418 3.54948 34.5534 3.44531C34.765 3.33789 34.944 3.18001 35.0905 2.97168C35.237 2.76009 35.3477 2.5013 35.4225 2.19531C35.5007 1.88932 35.5397 1.53776 35.5397 1.14062ZM40.473 4.5H38.9544L38.9642 3.52832H40.473C40.9124 3.52832 41.2803 3.43229 41.5765 3.24023C41.876 3.04818 42.1006 2.77311 42.2503 2.41504C42.4033 2.05697 42.4798 1.63053 42.4798 1.13574V0.75C42.4798 0.365885 42.4359 0.0257161 42.348 -0.270508C42.2633 -0.566732 42.1364 -0.815755 41.9671 -1.01758C41.8011 -1.2194 41.596 -1.3724 41.3519 -1.47656C41.111 -1.58073 40.8327 -1.63281 40.5169 -1.63281H38.9251V-2.60938H40.5169C40.9889 -2.60938 41.4202 -2.52962 41.8109 -2.37012C42.2015 -2.21387 42.5384 -1.98763 42.8216 -1.69141C43.1081 -1.39518 43.3278 -1.04036 43.4808 -0.626953C43.6338 -0.213542 43.7103 0.248698 43.7103 0.759766V1.13574C43.7103 1.64681 43.6338 2.10905 43.4808 2.52246C43.3278 2.93587 43.1081 3.29069 42.8216 3.58691C42.5352 3.87988 42.1934 4.10612 41.7962 4.26562C41.4023 4.42188 40.9613 4.5 40.473 4.5ZM39.6331 -2.60938V4.5H38.4076V-2.60938H39.6331ZM48.0186 -1.66211L45.8945 4.5H44.6104L47.2861 -2.60938H48.1064L48.0186 -1.66211ZM49.7959 4.5L47.667 -1.66211L47.5742 -2.60938H48.3994L51.085 4.5H49.7959ZM49.6934 1.86328V2.83496H45.8262V1.86328H49.6934ZM52.4196 -2.60938L54.07 0.78418L55.7204 -2.60938H57.0778L54.6852 1.88281V4.5H53.4499V1.88281L51.0573 -2.60938H52.4196Z" fill="#696D6E"/>
<defs>
<filter id="filter0_d_0_1" x="-37" y="-180" width="291" height="396" filterUnits="userSpaceOnUse" color-interpolation-filters="sRGB">
<feFlood flood-opacity="0" result="BackgroundImageFix"/>
<feColorMatrix in="SourceAlpha" type="matrix" values="0 0 0 0 0 0 0 0 0 0 0 0 0 0 0 0 0 0 127 0" result="hardAlpha"/>
<feOffset dy="1"/>
<feGaussianBlur stdDeviation="4"/>
<feColorMatrix type="matrix" values="0 0 0 0 0.431373 0 0 0 0 0.431373 0 0 0 0 0.431373 0 0 0 0.1 0"/>
<feBlend mode="normal" in2="BackgroundImageFix" result="effect1_dropShadow_0_1"/>
<feBlend mode="normal" in="SourceGraphic" in2="effect1_dropShadow_0_1" result="shape"/>
</filter>
</defs>
</svg>
